inDegrees=no
num_controls=7
num_derivatives=13
num_iterations=94
num_multipliers=7
num_parameters=0
num_slacks=7
num_states=26
objective=0.465663
objective_accelerations=0.054097
objective_balance=0.004354
objective_effort=0.062255
objective_height=0.336015
objective_ligament=0.008943
solver_duration=1160.187705
status=Solve_Succeeded
success=true
DataType=double
version=3
OpenSimVersion=4.5
endheader
time	/jointset/ground_pelvis/pelvis_tilt/value	/jointset/ground_pelvis/pelvis_tx/value	/jointset/ground_pelvis/pelvis_ty/value	/jointset/hip_r/hip_flexion_r/value	/jointset/hip_r/hip_adduction_r/value	/jointset/hip_r/hip_rotation_r/value	/jointset/back/lumbar_extension/value	/jointset/patellofemoral_r/patellar_flexion_r/value	/jointset/knee_r/knee_flexion_r/value	/jointset/knee_r/knee_adduction_r/value	/jointset/knee_r/knee_rotation_r/value	/jointset/ankle_r/ankle_angle_r/value	/jointset/subtalar_r/subtalar_angle_r/value	/jointset/ground_pelvis/pelvis_tilt/speed	/jointset/ground_pelvis/pelvis_tx/speed	/jointset/ground_pelvis/pelvis_ty/speed	/jointset/hip_r/hip_flexion_r/speed	/jointset/hip_r/hip_adduction_r/speed	/jointset/hip_r/hip_rotation_r/speed	/jointset/back/lumbar_extension/speed	/jointset/patellofemoral_r/patellar_flexion_r/speed	/jointset/knee_r/knee_flexion_r/speed	/jointset/knee_r/knee_adduction_r/speed	/jointset/knee_r/knee_rotation_r/speed	/jointset/ankle_r/ankle_angle_r/speed	/jointset/subtalar_r/subtalar_angle_r/speed	/forceset/tau_hip_flexion_r	/forceset/tau_hip_adduction_r	/forceset/tau_hip_rotation_r	/forceset/tau_knee_flexion_r	/forceset/tau_ankle_angle_r	/forceset/tau_subtalar_angle_r	/forceset/tau_lumbar_extension	lambda_cid13_p0	lambda_cid14_p0	lambda_cid14_p1	lambda_cid14_p2	lambda_cid14_p3	lambda_cid14_p4	lambda_cid14_p5	/jointset/ground_pelvis/pelvis_tilt/accel	/jointset/ground_pelvis/pelvis_tx/accel	/jointset/ground_pelvis/pelvis_ty/accel	/jointset/hip_r/hip_flexion_r/accel	/jointset/hip_r/hip_adduction_r/accel	/jointset/hip_r/hip_rotation_r/accel	/jointset/back/lumbar_extension/accel	/jointset/patellofemoral_r/patellar_flexion_r/accel	/jointset/knee_r/knee_flexion_r/accel	/jointset/knee_r/knee_adduction_r/accel	/jointset/knee_r/knee_rotation_r/accel	/jointset/ankle_r/ankle_angle_r/accel	/jointset/subtalar_r/subtalar_angle_r/accel	gamma_cid13_p0	gamma_cid14_p0	gamma_cid14_p1	gamma_cid14_p2	gamma_cid14_p3	gamma_cid14_p4	gamma_cid14_p5
1.5	-0.2297750499363585	-0.03528269648879288	0.6681659079677962	1.414238548064419	-0.2297520870112518	-0.06375222737742797	-0.3888236759307084	1.360450333672881	1.360450333672833	-0.08481720287388017	0.1737592702057279	0.3761191883663164	0.09200031673734692	0.358567513816125	0.1389720366914148	1.07259032951814	-3.07815700127899	0.05995729997554265	-0.3208171143411535	0.5090169408754606	-3.199213677489682	-3.199213677489601	0.4588367013259841	0.005449029568425116	-0.5899130818576604	-0.1095119892668467	-0.2213191165290999	-0.02773228627851002	0.01111014853878294	-0.4845881728055683	0.1231151896557389	0.009078949235725279	0.257357455184957	-0.04591279184088461	-3.916878449823592	4.019425514567996	-1.051516579730116	-9.371701263065404	-712.5286637348715	76.0692859781192	2.060171147783618	1.481843587269507	0.07164921720128666	-3.86338859546475	-0.05366441143165657	-0.5070514596811911	3.399454096239356	-4.463038102016683	-4.463038102016714	1.027932758885469	-0.1460473398680823	-3.0189186552867	-1.064326530485795	-4.979895029621002e-07	-1.345485728368152e-06	-6.047948141262478e-06	-6.934006081300409e-06	1.516450386818321e-06	3.542437893091634e-07	-9.192967651711742e-06
1.51	-0.2260876512984316	-0.03381864102749263	0.678892322570613	1.383267696234595	-0.2291560549201327	-0.06699235187363861	-0.3835629389059375	1.328238123365999	1.328238123366003	-0.08018281199783105	0.1738093839775209	0.3700697766340705	0.09085144528290905	0.3787694185352892	0.1538582860058122	1.072389573478142	-3.115630653764692	0.05921632321049718	-0.3271201143372989	0.5432073580800371	-3.242892946981449	-3.242892946981379	0.4681548272664259	0.0045301951548313	-0.6198770044751952	-0.1202367780402809	-0.2126753207257289	-0.02862720917549795	0.01159576792129224	-0.4723445407102659	0.1240203036983099	0.009330731234864184	0.2490756194043453	-0.04599822164594068	-2.853244514965689	4.444865905321189	-1.267677213180647	-10.33340836502909	-700.2498281261327	75.62357575393642	1.978602242267278	1.495216385946502	-0.1113223234347985	-3.632135228562766	-0.09043966126910133	-0.6790850875179992	3.440369634828584	-4.269957276798912	-4.269957276800924	0.9003346681518116	-0.0732345314443916	-2.971194385617957	-1.074662470288907	-4.945661682284847e-07	-1.382281171561033e-06	-6.464226196004165e-06	-7.369045635440841e-06	1.559113379113009e-06	3.459197990465121e-07	-9.228515760823637e-06
1.52	-0.2222025531916789	-0.03220508291656756	0.6896076527512618	1.351933551549197	-0.2285686576671103	-0.07029293853339734	-0.377957990888673	1.29559920318339	1.295599203183445	-0.075451923431042	0.1738486227973022	0.3637235126115223	0.0895957044568334	0.3981074075859678	0.1688725666163791	1.07037344508486	-3.150815572388002	0.05823033235631395	-0.3329095470508936	0.5778591393752273	-3.284555652634908	-3.284555652634849	0.4781362394679904	0.003274039167659348	-0.6492835399179869	-0.1308858635943813	-0.2040315249224567	-0.02952213207246719	0.01208138730314054	-0.4601009086150143	0.124925417740901	0.009582513234047086	0.2407937836236546	-0.0543432459591995	-1.798532401658467	4.864485531232815	-1.478033461351859	-11.29121439045855	-688.0999098450462	75.16715820753998	1.88738801408756	1.507449846502919	-0.291425253455671	-3.405641822985881	-0.1026672292590146	-0.4043380031711665	3.491726914362636	-4.059725334355315	-4.059725334355258	1.160590011109798	-0.21351165458376	-2.907441220338933	-1.04918588661919	-4.794437772961964e-07	-1.445352518290233e-06	-7.640329422928944e-06	-7.989634394548986e-06	1.670077817712501e-06	4.354676752460874e-07	-9.895417091011717e-06
1.53	-0.2181279462779097	-0.0304408119210163	0.7002938363445401	1.320258163102243	-0.227992835401287	-0.07365607730743237	-0.372005206616371	1.262553450141078	1.262553450141049	-0.07062360600432331	0.1738774057917643	0.3570862814957696	0.08823343135784534	0.41665730276068	0.1839941001002767	1.066548500496129	-3.183852390428602	0.0569475526650076	-0.3400644492861169	0.6127567703850814	-3.324216301188446	-3.324216301188426	0.4871799781824172	0.002549058535507832	-0.678001219188253	-0.1414364218072154	-0.1948318033069383	-0.03052518668969086	0.01219703705394004	-0.4478212106180638	0.1260690495540103	0.009710634103130032	0.2319395667810898	-0.2904050245004518	-0.6392073346751894	5.246597649834594	-1.68000447939675	-12.32089933551846	-675.3531975401359	74.56814856497891	1.815065180821277	1.516765612552076	-0.4750984998942944	-3.191473355376513	-0.1406739135385256	-0.9231251246417915	3.497639491319747	-3.862348992157913	-3.862348992163972	0.723200547079056	0.005635975664755321	-2.829494226977556	-1.040902777433987	-4.518911391528184e-07	-1.536342012526772e-06	-9.62374689529825e-06	-8.80736918393532e-06	1.853612543010844e-06	6.290044095617775e-07	-1.123313121859323e-05
